<svg xmlns="http://www.w3.org/2000/svg" width="1166.4" height="1146" viewBox="0 0 1166.4 1146" role="img">
<style>
  text { font-family: ui-monospace, "SF Mono", Menlo, Consolas, monospace; }
  @media (prefers-color-scheme: dark) {
    text { fill: #e8e6e3; } text.dim { fill: #9aa4b2; }
    .bg { fill:#14171a }
    .solid { fill:#232a31;stroke:#b6bfcc }
    .body { fill:#232a31;stroke:#b6bfcc }
    .admission { fill:#232a31;stroke:#b6bfcc }
    .cached { fill:#33302a }
    .reserve { stroke:#9aa4b2 }
    .enclosure { stroke:#9aa4b2 }
    .station { fill:#26403d;stroke:#b6bfcc }
    .cell { fill:#14171a;stroke:#b6bfcc }
    .rail { stroke:#b6bfcc }
    .flow { stroke:#b6bfcc }
    .back { stroke:#b6bfcc }
    .relation { stroke:#9aa4b2 }
    .grow { stroke:#b6bfcc }
  }
</style>
<defs><marker id="a" viewBox="0 0 10 10" refX="9" refY="5" markerWidth="6" markerHeight="6" orient="auto-start-reverse"><path d="M0 0 L10 5 L0 10 z" fill="context-stroke"/></marker></defs>
<rect class="bg" fill="#ffffff" x="0" y="0" width="1166.4" height="1146"/>
<rect class="solid" fill="#eef2f5" stroke="#4b5563" stroke-width="1.1" x="796" y="488" width="148" height="130" rx="2"/>
<rect class="reserve" fill="none" stroke="#6b7280" stroke-width=".8" stroke-dasharray="2 3" x="971" y="277" width="162" height="370" rx="2"/>
<rect class="admission" fill="#eef2f5" stroke="#4b5563" stroke-width="1.1" stroke-dasharray="5 3" x="978" y="280" width="148" height="364" rx="2"/>
<rect class="cached" fill="#e6e2da" stroke="none" x="978" y="644" width="148" height="10" rx="1"/>
<rect class="reserve" fill="none" stroke="#6b7280" stroke-width=".8" stroke-dasharray="2 3" x="789" y="277" width="162" height="370" rx="2"/>
<rect class="solid" fill="#eef2f5" stroke="#4b5563" stroke-width="1.1" x="796" y="280" width="148" height="364" rx="2"/>
<rect class="solid" fill="#eef2f5" stroke="#4b5563" stroke-width="1.1" x="432" y="202" width="148" height="52" rx="2"/>
<rect class="reserve" fill="none" stroke="#6b7280" stroke-width=".8" stroke-dasharray="2 3" x="607" y="199" width="162" height="474" rx="2"/>
<rect class="admission" fill="#eef2f5" stroke="#4b5563" stroke-width="1.1" stroke-dasharray="5 3" x="614" y="202" width="148" height="468" rx="2"/>
<rect class="cached" fill="#e6e2da" stroke="none" x="614" y="670" width="148" height="10" rx="1"/>
<rect class="solid" fill="#eef2f5" stroke="#4b5563" stroke-width="1.1" x="796" y="722" width="148" height="156" rx="2"/>
<rect class="reserve" fill="none" stroke="#6b7280" stroke-width=".8" stroke-dasharray="2 3" x="971" y="719" width="162" height="162" rx="2"/>
<rect class="admission" fill="#eef2f5" stroke="#4b5563" stroke-width="1.1" stroke-dasharray="5 3" x="978" y="722" width="148" height="156" rx="2"/>
<rect class="cached" fill="#e6e2da" stroke="none" x="978" y="878" width="148" height="10" rx="1"/>
<rect class="cached" fill="#e6e2da" stroke="none" x="614" y="680" width="148" height="440" rx="1"/>
<rect class="cached" fill="#e6e2da" stroke="none" x="978" y="888" width="148" height="232" rx="1"/>
<polygon class="body" fill="#eef2f5" stroke="#4b5563" stroke-width="1.1" points="614,230 680.6,230 762,250 614,250"/>
<text x="619" y="245" text-anchor="start" font-size="8" fill="#6b7280" class="dim">growing</text>
<polygon class="body" fill="#eef2f5" stroke="#4b5563" stroke-width="1.1" points="978,516 1044.6,516 1126,536 978,536"/>
<text x="983" y="531" text-anchor="start" font-size="8" fill="#6b7280" class="dim">growing</text>
<polygon class="body" fill="#eef2f5" stroke="#4b5563" stroke-width="1.1" points="978,594 1044.6,594 1126,614 978,614"/>
<text x="983" y="609" text-anchor="start" font-size="8" fill="#6b7280" class="dim">growing</text>
<text x="800" y="501" text-anchor="start" font-size="8" fill="#6b7280" class="dim">1</text>
<text x="973" y="273" text-anchor="start" font-size="8" fill="#6b7280" class="dim">reserve (computed &lt; prompt ? pro~</text>
<text x="982" y="293" text-anchor="start" font-size="8" fill="#6b7280" class="dim">computed &lt; prompt ? prompt : com~</text>
<text x="982" y="664" text-anchor="start" font-size="8" fill="#6b7280" class="dim">cache (prompt + o)</text>
<text x="791" y="273" text-anchor="start" font-size="8" fill="#6b7280" class="dim">reserve (1)</text>
<text x="800" y="293" text-anchor="start" font-size="8" fill="#6b7280" class="dim">0</text>
<text x="436" y="215" text-anchor="start" font-size="8" fill="#6b7280" class="dim">1</text>
<text x="609" y="195" text-anchor="start" font-size="8" fill="#6b7280" class="dim">reserve (prompt)</text>
<text x="618" y="215" text-anchor="start" font-size="8" fill="#6b7280" class="dim">min(prompt, min(cachedin(kvP[i])~</text>
<text x="618" y="690" text-anchor="start" font-size="8" fill="#6b7280" class="dim">cache (prompt)</text>
<polygon class="body" fill="#eef2f5" stroke="#4b5563" stroke-width="1.1" points="978,776 1044.6,776 1126,796 978,796"/>
<text x="983" y="791" text-anchor="start" font-size="8" fill="#6b7280" class="dim">growing</text>
<polygon class="body" fill="#eef2f5" stroke="#4b5563" stroke-width="1.1" points="978,854 1044.6,854 1126,874 978,874"/>
<text x="983" y="869" text-anchor="start" font-size="8" fill="#6b7280" class="dim">growing</text>
<text x="800" y="735" text-anchor="start" font-size="8" fill="#6b7280" class="dim">1</text>
<text x="973" y="715" text-anchor="start" font-size="8" fill="#6b7280" class="dim">reserve (computed &lt; prompt ? pro~</text>
<text x="982" y="735" text-anchor="start" font-size="8" fill="#6b7280" class="dim">min(computed &lt; prompt ? prompt :~</text>
<text x="982" y="898" text-anchor="start" font-size="8" fill="#6b7280" class="dim">cache (prompt + o)</text>
<text x="422" y="40" text-anchor="start" font-size="10" fill="#1d2021">pool reqsP</text>
<text x="422" y="54" text-anchor="start" font-size="8" fill="#6b7280" class="dim">cap 16</text>
<path class="relation" fill="none" stroke="#6b7280" stroke-width="1" stroke-dasharray="2 3" d="M422 60 L590 60"/>
<text x="604" y="40" text-anchor="start" font-size="10" fill="#1d2021">pool kvP</text>
<text x="604" y="54" text-anchor="start" font-size="8" fill="#6b7280" class="dim">cap 160000</text>
<path class="relation" fill="none" stroke="#6b7280" stroke-width="1" stroke-dasharray="2 3" d="M604 60 L772 60"/>
<text x="786" y="40" text-anchor="start" font-size="10" fill="#1d2021">pool reqsD</text>
<text x="786" y="54" text-anchor="start" font-size="8" fill="#6b7280" class="dim">cap 64</text>
<path class="relation" fill="none" stroke="#6b7280" stroke-width="1" stroke-dasharray="2 3" d="M786 60 L954 60"/>
<text x="968" y="40" text-anchor="start" font-size="10" fill="#1d2021">pool kvD</text>
<text x="968" y="54" text-anchor="start" font-size="8" fill="#6b7280" class="dim">cap 160000</text>
<path class="relation" fill="none" stroke="#6b7280" stroke-width="1" stroke-dasharray="2 3" d="M968 60 L1136 60"/>
<text x="26" y="40" text-anchor="start" font-size="10" fill="#1d2021">session</text>
<text x="82" y="84" text-anchor="start" font-size="10" fill="#1d2021">*</text>
<text x="96" y="84" text-anchor="start" font-size="8" fill="#1d2021">turn</text>
<text x="82" y="110" text-anchor="start" font-size="10" fill="#1d2021">@</text>
<text x="96" y="110" text-anchor="start" font-size="8" fill="#1d2021">loop</text>
<text x="82" y="136" text-anchor="start" font-size="10" fill="#1d2021">&lt;</text>
<text x="96" y="136" text-anchor="start" font-size="8" fill="#1d2021">choose j in 2 by (holders(kvD[j]) + queued(kvD[j]))</text>
<text x="82" y="162" text-anchor="start" font-size="10" fill="#1d2021">?</text>
<text x="96" y="162" text-anchor="start" font-size="8" fill="#1d2021">branch (remote)</text>
<text x="82" y="188" text-anchor="start" font-size="10" fill="#1d2021">&lt;</text>
<text x="96" y="188" text-anchor="start" font-size="8" fill="#1d2021">choose i in 2 by ((cachedin(kvP[i]) &gt; 0 ? 0 : 1) * 10~</text>
<text x="82" y="214" text-anchor="start" font-size="10" fill="#1d2021">[</text>
<text x="96" y="214" text-anchor="start" font-size="8" fill="#1d2021">hold reqsP[i] (1), kvP[i] (min(prompt, min(cachedin(k~</text>
<rect class="body" fill="#eef2f5" stroke="#4b5563" stroke-width="1.1" x="78" y="230" width="324" height="20" rx="2"/>
<text x="84" y="243" text-anchor="start" font-size="8" fill="#1d2021">run P[i] prefill</text>
<text x="210" y="243" text-anchor="start" font-size="8" fill="#6b7280" class="dim">(prompt - c)</text>
<text x="82" y="266" text-anchor="start" font-size="10" fill="#1d2021">]</text>
<text x="96" y="266" text-anchor="start" font-size="8" fill="#1d2021">release reqsP[i]</text>
<text x="82" y="292" text-anchor="start" font-size="10" fill="#1d2021">v</text>
<text x="96" y="292" text-anchor="start" font-size="8" fill="#1d2021">reuse (floor(((computed &lt; prompt ? prompt : computed ~</text>
<text x="82" y="318" text-anchor="start" font-size="10" fill="#1d2021">[</text>
<text x="96" y="318" text-anchor="start" font-size="8" fill="#1d2021">hold kvD[j] (computed &lt; prompt ? prompt : computed + ~</text>
<text x="82" y="344" text-anchor="start" font-size="10" fill="#1d2021">?</text>
<text x="96" y="344" text-anchor="start" font-size="8" fill="#1d2021">branch (!transferred)</text>
<text x="82" y="370" text-anchor="start" font-size="10" fill="#1d2021">o</text>
<text x="96" y="370" text-anchor="start" font-size="8" fill="#1d2021">observe remote_tokens = prompt - c</text>
<rect class="body" fill="#eef2f5" stroke="#4b5563" stroke-width="1.1" x="78" y="386" width="324" height="20" rx="2"/>
<text x="84" y="399" text-anchor="start" font-size="8" fill="#1d2021">run link[j]</text>
<text x="210" y="399" text-anchor="start" font-size="8" fill="#6b7280" class="dim">(2e-3 + (prompt - c) / 200000)</text>
<text x="82" y="422" text-anchor="start" font-size="10" fill="#1d2021">+</text>
<text x="96" y="422" text-anchor="start" font-size="8" fill="#1d2021">load kvD[j] (prompt - 1 - c)</text>
<text x="82" y="448" text-anchor="start" font-size="10" fill="#1d2021">]</text>
<text x="96" y="448" text-anchor="start" font-size="8" fill="#1d2021">release kvP[i]</text>
<text x="82" y="474" text-anchor="start" font-size="10" fill="#1d2021">o</text>
<text x="96" y="474" text-anchor="start" font-size="8" fill="#1d2021">observe lease = now - t1</text>
<path class="relation" fill="none" stroke="#6b7280" stroke-width="1" stroke-dasharray="2 3" d="M56 348 L56 482"/>
<text x="82" y="500" text-anchor="start" font-size="10" fill="#1d2021">[</text>
<text x="96" y="500" text-anchor="start" font-size="8" fill="#1d2021">hold reqsD[j] (1)</text>
<rect class="body" fill="#eef2f5" stroke="#4b5563" stroke-width="1.1" x="78" y="516" width="324" height="20" rx="2"/>
<text x="84" y="529" text-anchor="start" font-size="8" fill="#1d2021">run D[j] prefill</text>
<text x="210" y="529" text-anchor="start" font-size="8" fill="#6b7280" class="dim">(known - c)</text>
<text x="82" y="552" text-anchor="start" font-size="10" fill="#1d2021">?</text>
<text x="96" y="552" text-anchor="start" font-size="8" fill="#1d2021">branch (known == prompt)</text>
<text x="82" y="578" text-anchor="start" font-size="10" fill="#1d2021">o</text>
<text x="96" y="578" text-anchor="start" font-size="8" fill="#1d2021">observe ttft = now - t0</text>
<path class="relation" fill="none" stroke="#6b7280" stroke-width="1" stroke-dasharray="2 3" d="M56 556 L56 586"/>
<rect class="body" fill="#eef2f5" stroke="#4b5563" stroke-width="1.1" x="78" y="594" width="324" height="20" rx="2"/>
<text x="84" y="607" text-anchor="start" font-size="8" fill="#1d2021">run D[j] decode</text>
<text x="210" y="607" text-anchor="start" font-size="8" fill="#6b7280" class="dim">(o - 1 - (known - prompt))</text>
<text x="82" y="630" text-anchor="start" font-size="10" fill="#1d2021">]</text>
<text x="96" y="630" text-anchor="start" font-size="8" fill="#1d2021">release</text>
<text x="82" y="656" text-anchor="start" font-size="10" fill="#1d2021">]</text>
<text x="96" y="656" text-anchor="start" font-size="8" fill="#1d2021">release</text>
<text x="82" y="682" text-anchor="start" font-size="10" fill="#1d2021">]</text>
<text x="96" y="682" text-anchor="start" font-size="8" fill="#1d2021">release</text>
<text x="82" y="708" text-anchor="start" font-size="10" fill="#1d2021">:</text>
<text x="96" y="708" text-anchor="start" font-size="8" fill="#1d2021">else</text>
<text x="82" y="734" text-anchor="start" font-size="10" fill="#1d2021">[</text>
<text x="96" y="734" text-anchor="start" font-size="8" fill="#1d2021">hold reqsD[j] (1), kvD[j] (min(computed &lt; prompt ? pr~</text>
<text x="82" y="760" text-anchor="start" font-size="10" fill="#1d2021">o</text>
<text x="96" y="760" text-anchor="start" font-size="8" fill="#1d2021">observe local_tokens = known - c</text>
<rect class="body" fill="#eef2f5" stroke="#4b5563" stroke-width="1.1" x="78" y="776" width="324" height="20" rx="2"/>
<text x="84" y="789" text-anchor="start" font-size="8" fill="#1d2021">run D[j] prefill</text>
<text x="210" y="789" text-anchor="start" font-size="8" fill="#6b7280" class="dim">(known - c)</text>
<text x="82" y="812" text-anchor="start" font-size="10" fill="#1d2021">?</text>
<text x="96" y="812" text-anchor="start" font-size="8" fill="#1d2021">branch (known == prompt)</text>
<text x="82" y="838" text-anchor="start" font-size="10" fill="#1d2021">o</text>
<text x="96" y="838" text-anchor="start" font-size="8" fill="#1d2021">observe ttft = now - t0</text>
<path class="relation" fill="none" stroke="#6b7280" stroke-width="1" stroke-dasharray="2 3" d="M56 816 L56 846"/>
<rect class="body" fill="#eef2f5" stroke="#4b5563" stroke-width="1.1" x="78" y="854" width="324" height="20" rx="2"/>
<text x="84" y="867" text-anchor="start" font-size="8" fill="#1d2021">run D[j] decode</text>
<text x="210" y="867" text-anchor="start" font-size="8" fill="#6b7280" class="dim">(o - 1 - (known - prompt))</text>
<text x="82" y="890" text-anchor="start" font-size="10" fill="#1d2021">]</text>
<text x="96" y="890" text-anchor="start" font-size="8" fill="#1d2021">release</text>
<path class="relation" fill="none" stroke="#6b7280" stroke-width="1" stroke-dasharray="2 3" d="M43 166 L43 898"/>
<text x="82" y="916" text-anchor="start" font-size="10" fill="#1d2021">o</text>
<text x="96" y="916" text-anchor="start" font-size="8" fill="#1d2021">observe remote = remote</text>
<text x="82" y="942" text-anchor="start" font-size="10" fill="#1d2021">o</text>
<text x="96" y="942" text-anchor="start" font-size="8" fill="#1d2021">observe response = now - t0</text>
<text x="82" y="968" text-anchor="start" font-size="10" fill="#1d2021">?</text>
<text x="96" y="968" text-anchor="start" font-size="8" fill="#1d2021">branch (more)</text>
<rect class="body" fill="#eef2f5" stroke="#4b5563" stroke-width="1.1" x="78" y="984" width="324" height="20" rx="2"/>
<text x="84" y="997" text-anchor="start" font-size="8" fill="#1d2021">run tool</text>
<text x="210" y="997" text-anchor="start" font-size="8" fill="#6b7280" class="dim">(~exp(3))</text>
<text x="82" y="1020" text-anchor="start" font-size="10" fill="#1d2021">*</text>
<text x="96" y="1020" text-anchor="start" font-size="8" fill="#1d2021">turn</text>
<text x="82" y="1046" text-anchor="start" font-size="10" fill="#1d2021">:</text>
<text x="96" y="1046" text-anchor="start" font-size="8" fill="#1d2021">else</text>
<text x="82" y="1072" text-anchor="start" font-size="10" fill="#1d2021">#</text>
<text x="96" y="1072" text-anchor="start" font-size="8" fill="#1d2021">end</text>
<path class="relation" fill="none" stroke="#6b7280" stroke-width="1" stroke-dasharray="2 3" d="M43 972 L43 1080"/>
<path class="back" fill="none" stroke="#4b5563" stroke-width="1.1" stroke-dasharray="4 3" d="M34 1090 L28 1090 L28 108 L34 108" marker-end="url(#a)"/>
<text x="38" y="1102" text-anchor="start" font-size="8" fill="#6b7280" class="dim">back to the top of the turn</text>
</svg>
