<svg xmlns="http://www.w3.org/2000/svg" width="1815.2" height="453" viewBox="0 0 1815.2 453" role="img">
<style>
  text { font-family: ui-monospace, "SF Mono", Menlo, Consolas, monospace; }
  @media (prefers-color-scheme: dark) {
    text { fill: #e8e6e3; } text.dim { fill: #9aa4b2; }
    .bg { fill:#14171a }
    .solid { fill:#232a31;stroke:#b6bfcc }
    .cached { fill:#33302a }
    .instance { fill:#1a1f24;stroke:#b6bfcc }
    .frame { stroke:#b6bfcc }
    .enclosure { stroke:#9aa4b2 }
    .station { fill:#26403d;stroke:#b6bfcc }
    .cell { fill:#14171a;stroke:#b6bfcc }
    .rail { stroke:#b6bfcc }
    .flow { stroke:#b6bfcc }
    .back { stroke:#b6bfcc }
    .relation { stroke:#9aa4b2 }
  }
</style>
<defs><marker id="a" viewBox="0 0 10 10" refX="9" refY="5" markerWidth="6" markerHeight="6" orient="auto-start-reverse"><path d="M0 0 L10 5 L0 10 z" fill="context-stroke"/></marker></defs>
<rect class="bg" fill="#ffffff" x="0" y="0" width="1815.2" height="453"/>
<rect class="instance" fill="#f5f7f9" stroke="#4b5563" stroke-width="1.2" x="944.4" y="89" width="554" height="224" rx="10"/>
<rect class="instance" fill="#f5f7f9" stroke="#4b5563" stroke-width="1.2" x="320" y="89" width="472.4" height="224" rx="10"/>
<rect class="rail" fill="none" stroke="#4b5563" stroke-width="1" x="690.4" y="135" width="356" height="64" rx="4"/>
<path class="flow" fill="none" stroke="#4b5563" stroke-width="1.3" d="M780.4 167 L956.4 167" marker-end="url(#a)"/>
<text x="868.4" y="159" text-anchor="middle" font-size="8" fill="#6b7280" class="dim">P.kv[i] → D.kv[j]</text>
<text x="868.4" y="182" text-anchor="middle" font-size="8" fill="#6b7280" class="dim">D.nic latency (2e-3)</text>
<rect class="frame" fill="none" stroke="#4b5563" stroke-width="1.1" x="332" y="115" width="290.4" height="186" rx="8"/>
<path class="rail" fill="none" stroke="#4b5563" stroke-width="1" d="M344 156 L374 156 M344 178 L374 178"/>
<rect class="cell" fill="#ffffff" stroke="#4b5563" stroke-width=".8" x="346.14" y="158" width="6" height="18"/>
<rect class="cell" fill="#ffffff" stroke="#4b5563" stroke-width=".8" x="354.71" y="158" width="6" height="18"/>
<rect class="cell" fill="#ffffff" stroke="#4b5563" stroke-width=".8" x="363.29" y="158" width="6" height="18"/>
<text x="344" y="191" text-anchor="start" font-size="8" fill="#6b7280" class="dim">P.reqs + P.kv</text>
<rect class="cell" fill="#ffffff" stroke="#4b5563" stroke-width=".8" x="344" y="219" width="2.87" height="8.58"/>
<rect class="cell" fill="#ffffff" stroke="#4b5563" stroke-width=".8" x="347.5" y="219" width="2.87" height="8.58"/>
<rect class="cell" fill="#ffffff" stroke="#4b5563" stroke-width=".8" x="351" y="219" width="2.87" height="8.58"/>
<rect class="cell" fill="#ffffff" stroke="#4b5563" stroke-width=".8" x="354.5" y="219" width="2.87" height="8.58"/>
<rect class="cell" fill="#ffffff" stroke="#4b5563" stroke-width=".8" x="358" y="219" width="2.87" height="8.58"/>
<rect class="cell" fill="#ffffff" stroke="#4b5563" stroke-width=".8" x="361.5" y="219" width="2.87" height="8.58"/>
<rect class="cell" fill="#ffffff" stroke="#4b5563" stroke-width=".8" x="365" y="219" width="2.87" height="8.58"/>
<rect class="cell" fill="#ffffff" stroke="#4b5563" stroke-width=".8" x="368.5" y="219" width="2.87" height="8.58"/>
<rect class="cell" fill="#ffffff" stroke="#4b5563" stroke-width=".8" x="344" y="230" width="2.87" height="8.58"/>
<rect class="cell" fill="#ffffff" stroke="#4b5563" stroke-width=".8" x="347.5" y="230" width="2.87" height="8.58"/>
<rect class="cell" fill="#ffffff" stroke="#4b5563" stroke-width=".8" x="351" y="230" width="2.87" height="8.58"/>
<rect class="cell" fill="#ffffff" stroke="#4b5563" stroke-width=".8" x="354.5" y="230" width="2.87" height="8.58"/>
<rect class="cell" fill="#ffffff" stroke="#4b5563" stroke-width=".8" x="358" y="230" width="2.87" height="8.58"/>
<rect class="cell" fill="#ffffff" stroke="#4b5563" stroke-width=".8" x="361.5" y="230" width="2.87" height="8.58"/>
<rect class="cell" fill="#ffffff" stroke="#4b5563" stroke-width=".8" x="365" y="230" width="2.87" height="8.58"/>
<rect class="cell" fill="#ffffff" stroke="#4b5563" stroke-width=".8" x="368.5" y="230" width="2.87" height="8.58"/>
<text x="380" y="228" text-anchor="start" font-size="10" fill="#1d2021">pool P.reqs</text>
<text x="380" y="240" text-anchor="start" font-size="8" fill="#6b7280" class="dim">cap 16 · admit via P[i]</text>
<rect class="cell" fill="#ffffff" stroke="#4b5563" stroke-width=".8" x="344" y="251" width="5.74" height="8.58"/>
<rect class="cell" fill="#ffffff" stroke="#4b5563" stroke-width=".8" x="351" y="251" width="5.74" height="8.58"/>
<rect class="cell" fill="#ffffff" stroke="#4b5563" stroke-width=".8" x="358" y="251" width="5.74" height="8.58"/>
<rect class="cell" fill="#ffffff" stroke="#4b5563" stroke-width=".8" x="365" y="251" width="5.74" height="8.58"/>
<rect class="cell" fill="#ffffff" stroke="#4b5563" stroke-width=".8" x="344" y="262" width="5.74" height="8.58"/>
<rect class="cell" fill="#ffffff" stroke="#4b5563" stroke-width=".8" x="351" y="262" width="5.74" height="8.58"/>
<rect class="cell" fill="#ffffff" stroke="#4b5563" stroke-width=".8" x="358" y="262" width="5.74" height="8.58"/>
<rect class="cell" fill="#ffffff" stroke="#4b5563" stroke-width=".8" x="365" y="262" width="5.74" height="8.58"/>
<text x="380" y="260" text-anchor="start" font-size="10" fill="#1d2021">pool P.kv</text>
<text x="380" y="272" text-anchor="start" font-size="8" fill="#6b7280" class="dim">cap 160000 · block 16 · evict lru · preempt lifo</text>
<rect class="cached" fill="#e6e2da" stroke="none" x="344" y="277" width="266.4" height="11" rx="2"/>
<text x="477.2" y="285.5" text-anchor="middle" font-size="8" fill="#6b7280" class="dim">prefix cache</text>
<rect class="frame" fill="none" stroke="#4b5563" stroke-width="1.1" x="1114.4" y="115" width="372" height="186" rx="8"/>
<path class="rail" fill="none" stroke="#4b5563" stroke-width="1" d="M1126.4 156 L1156.4 156 M1126.4 178 L1156.4 178"/>
<rect class="cell" fill="#ffffff" stroke="#4b5563" stroke-width=".8" x="1128.54" y="158" width="6" height="18"/>
<rect class="cell" fill="#ffffff" stroke="#4b5563" stroke-width=".8" x="1137.11" y="158" width="6" height="18"/>
<rect class="cell" fill="#ffffff" stroke="#4b5563" stroke-width=".8" x="1145.69" y="158" width="6" height="18"/>
<text x="1126.4" y="191" text-anchor="start" font-size="8" fill="#6b7280" class="dim">D.kv</text>
<path class="rail" fill="none" stroke="#4b5563" stroke-width="1" d="M1166.4 156 L1196.4 156 M1166.4 178 L1196.4 178"/>
<rect class="cell" fill="#ffffff" stroke="#4b5563" stroke-width=".8" x="1168.54" y="158" width="6" height="18"/>
<rect class="cell" fill="#ffffff" stroke="#4b5563" stroke-width=".8" x="1177.11" y="158" width="6" height="18"/>
<rect class="cell" fill="#ffffff" stroke="#4b5563" stroke-width=".8" x="1185.69" y="158" width="6" height="18"/>
<text x="1166.4" y="191" text-anchor="start" font-size="8" fill="#6b7280" class="dim">D.reqs</text>
<rect class="cell" fill="#ffffff" stroke="#4b5563" stroke-width=".8" x="1126.4" y="219" width="5.74" height="8.58"/>
<rect class="cell" fill="#ffffff" stroke="#4b5563" stroke-width=".8" x="1133.4" y="219" width="5.74" height="8.58"/>
<rect class="cell" fill="#ffffff" stroke="#4b5563" stroke-width=".8" x="1140.4" y="219" width="5.74" height="8.58"/>
<rect class="cell" fill="#ffffff" stroke="#4b5563" stroke-width=".8" x="1147.4" y="219" width="5.74" height="8.58"/>
<rect class="cell" fill="#ffffff" stroke="#4b5563" stroke-width=".8" x="1126.4" y="230" width="5.74" height="8.58"/>
<rect class="cell" fill="#ffffff" stroke="#4b5563" stroke-width=".8" x="1133.4" y="230" width="5.74" height="8.58"/>
<rect class="cell" fill="#ffffff" stroke="#4b5563" stroke-width=".8" x="1140.4" y="230" width="5.74" height="8.58"/>
<rect class="cell" fill="#ffffff" stroke="#4b5563" stroke-width=".8" x="1147.4" y="230" width="5.74" height="8.58"/>
<text x="1162.4" y="228" text-anchor="start" font-size="10" fill="#1d2021">pool D.kv</text>
<text x="1162.4" y="240" text-anchor="start" font-size="8" fill="#6b7280" class="dim">cap 160000 · block 16 · evict lru · preempt lifo · admit via D[j]</text>
<rect class="cached" fill="#e6e2da" stroke="none" x="1126.4" y="245" width="348" height="11" rx="2"/>
<text x="1300.4" y="253.5" text-anchor="middle" font-size="8" fill="#6b7280" class="dim">prefix cache</text>
<rect class="cell" fill="#ffffff" stroke="#4b5563" stroke-width=".8" x="1126.4" y="267" width="5.74" height="8.58"/>
<rect class="cell" fill="#ffffff" stroke="#4b5563" stroke-width=".8" x="1133.4" y="267" width="5.74" height="8.58"/>
<rect class="cell" fill="#ffffff" stroke="#4b5563" stroke-width=".8" x="1140.4" y="267" width="5.74" height="8.58"/>
<rect class="cell" fill="#ffffff" stroke="#4b5563" stroke-width=".8" x="1147.4" y="267" width="5.74" height="8.58"/>
<rect class="cell" fill="#ffffff" stroke="#4b5563" stroke-width=".8" x="1126.4" y="278" width="5.74" height="8.58"/>
<rect class="cell" fill="#ffffff" stroke="#4b5563" stroke-width=".8" x="1133.4" y="278" width="5.74" height="8.58"/>
<rect class="cell" fill="#ffffff" stroke="#4b5563" stroke-width=".8" x="1140.4" y="278" width="5.74" height="8.58"/>
<rect class="cell" fill="#ffffff" stroke="#4b5563" stroke-width=".8" x="1147.4" y="278" width="5.74" height="8.58"/>
<text x="1162.4" y="276" text-anchor="start" font-size="10" fill="#1d2021">pool D.reqs</text>
<text x="1162.4" y="288" text-anchor="start" font-size="8" fill="#6b7280" class="dim">cap 64 · admit via D[j]</text>
<polygon class="station" fill="#d8e6e4" stroke="#4b5563" stroke-width="1.3" points="204,141 230,167 204,193 178,167"/>
<text x="204" y="133" text-anchor="middle" font-size="10" fill="#1d2021">choose j, i</text>
<rect class="station" fill="#d8e6e4" stroke="#4b5563" stroke-width="1.3" x="416.4" y="141" width="84" height="52" rx="3"/>
<rect class="cell" fill="#ffffff" stroke="#4b5563" stroke-width=".8" x="424.4" y="180" width="68" height="6"/>
<rect class="solid" fill="#eef2f5" stroke="#4b5563" stroke-width="1.1" x="424.4" y="180" width="42.16" height="6"/>
<text x="458.4" y="163" text-anchor="middle" font-size="10" fill="#1d2021">step</text>
<text x="458.4" y="133" text-anchor="middle" font-size="10" fill="#1d2021">P[i]</text>
<text x="458.4" y="206" text-anchor="middle" font-size="8" fill="#6b7280" class="dim">budget 8192</text>
<circle class="station" fill="#d8e6e4" stroke="#4b5563" stroke-width="1.3" cx="738.4" cy="167" r="26"/>
<text x="738.4" y="170.5" text-anchor="middle" font-size="10" fill="#1d2021">PS</text>
<text x="738.4" y="133" text-anchor="middle" font-size="10" fill="#1d2021">P.nic[i]</text>
<text x="738.4" y="206" text-anchor="middle" font-size="8" fill="#6b7280" class="dim">200000</text>
<circle class="station" fill="#d8e6e4" stroke="#4b5563" stroke-width="1.3" cx="998.4" cy="167" r="26"/>
<text x="998.4" y="170.5" text-anchor="middle" font-size="10" fill="#1d2021">PS</text>
<text x="998.4" y="133" text-anchor="middle" font-size="10" fill="#1d2021">D.nic[j]</text>
<text x="998.4" y="206" text-anchor="middle" font-size="8" fill="#6b7280" class="dim">200000</text>
<rect class="station" fill="#d8e6e4" stroke="#4b5563" stroke-width="1.3" x="1206.4" y="141" width="84" height="52" rx="3"/>
<rect class="cell" fill="#ffffff" stroke="#4b5563" stroke-width=".8" x="1214.4" y="180" width="68" height="6"/>
<rect class="solid" fill="#eef2f5" stroke="#4b5563" stroke-width="1.1" x="1214.4" y="180" width="42.16" height="6"/>
<text x="1248.4" y="163" text-anchor="middle" font-size="10" fill="#1d2021">step</text>
<text x="1248.4" y="133" text-anchor="middle" font-size="10" fill="#1d2021">D[j]</text>
<text x="1248.4" y="206" text-anchor="middle" font-size="8" fill="#6b7280" class="dim">budget 8192</text>
<rect class="station" fill="#d8e6e4" stroke="#4b5563" stroke-width="1.3" x="1572.4" y="141" width="84" height="52" rx="8"/>
<circle class="cell" fill="#ffffff" stroke="#4b5563" stroke-width=".8" cx="1586.4" cy="167" r="4"/>
<circle class="cell" fill="#ffffff" stroke="#4b5563" stroke-width=".8" cx="1600.4" cy="167" r="4"/>
<circle class="cell" fill="#ffffff" stroke="#4b5563" stroke-width=".8" cx="1614.4" cy="167" r="4"/>
<circle class="cell" fill="#ffffff" stroke="#4b5563" stroke-width=".8" cx="1628.4" cy="167" r="4"/>
<circle class="cell" fill="#ffffff" stroke="#4b5563" stroke-width=".8" cx="1642.4" cy="167" r="4"/>
<text x="1614.4" y="133" text-anchor="middle" font-size="10" fill="#1d2021">tool</text>
<text x="1614.4" y="206" text-anchor="middle" font-size="8" fill="#6b7280" class="dim">delay</text>
<text x="330" y="82" text-anchor="start" font-size="10" fill="#1d2021">prefill instance P[i]</text>
<text x="468" y="82" text-anchor="start" font-size="8" fill="#6b7280" class="dim">choose i of 2</text>
<text x="954.4" y="82" text-anchor="start" font-size="10" fill="#1d2021">decode instance D[j]</text>
<text x="1086.4" y="82" text-anchor="start" font-size="8" fill="#6b7280" class="dim">choose j of 2</text>
<path class="flow" fill="none" stroke="#4b5563" stroke-width="1.3" d="M28 167 L162 167" marker-end="url(#a)"/>
<text x="28" y="157" text-anchor="start" font-size="8" fill="#6b7280" class="dim">new sessions: Poisson 0.6</text>
<path class="flow" fill="none" stroke="#4b5563" stroke-width="1.3" d="M225 193 L225 337 L1682.4 337" marker-end="url(#a)"/>
<text x="1686.4" y="340" text-anchor="start" font-size="8" fill="#6b7280" class="dim">ends (K + n &gt;= 16384)</text>
<path class="flow" fill="none" stroke="#4b5563" stroke-width="1.3" d="M246 167 L416.4 167" marker-end="url(#a)"/>
<text x="252" y="159" text-anchor="start" font-size="8" fill="#6b7280" class="dim">remote</text>
<path class="flow" fill="none" stroke="#4b5563" stroke-width="1.3" d="M500.4 167 L696.4 167" marker-end="url(#a)"/>
<text x="628.4" y="159" text-anchor="start" font-size="8" fill="#6b7280" class="dim">!D.transferred</text>
<path class="flow" fill="none" stroke="#4b5563" stroke-width="1.3" d="M1040.4 167 L1206.4 167" marker-end="url(#a)"/>
<path class="flow" fill="none" stroke="#4b5563" stroke-width="1.3" d="M468.9 301 L468.9 359 L1248.4 359 L1248.4 301" marker-end="url(#a)"/>
<path class="flow" fill="none" stroke="#4b5563" stroke-width="1.3" d="M214.5 193 L214.5 381 L1248.4 381 L1248.4 301" marker-end="url(#a)"/>
<text x="726.2" y="376" text-anchor="middle" font-size="8" fill="#6b7280" class="dim">else</text>
<path class="flow" fill="none" stroke="#4b5563" stroke-width="1.3" d="M1290.4 167 L1572.4 167" marker-end="url(#a)"/>
<text x="1492.4" y="159" text-anchor="start" font-size="8" fill="#6b7280" class="dim">more</text>
<path class="flow" fill="none" stroke="#4b5563" stroke-width="1.3" d="M1269.4 301 L1269.4 403 L1682.4 403" marker-end="url(#a)"/>
<text x="1686.4" y="406" text-anchor="start" font-size="8" fill="#6b7280" class="dim">ends (else)</text>
<path class="back" fill="none" stroke="#4b5563" stroke-width="1.1" stroke-dasharray="4 3" d="M1593.4 193 L1593.4 425 L183 425 L183 193" marker-end="url(#a)"/>
</svg>
