<svg xmlns="http://www.w3.org/2000/svg" width="830.8" height="249" viewBox="0 0 830.8 249" role="img">
<style>
  text { font-family: ui-monospace, "SF Mono", Menlo, Consolas, monospace; }
  @media (prefers-color-scheme: dark) {
    text { fill: #e8e6e3; } text.dim { fill: #9aa4b2; }
    .bg { fill:#14171a }
    .solid { fill:#232a31;stroke:#b6bfcc }
    .cached { fill:#33302a }
    .instance { fill:#1a1f24;stroke:#b6bfcc }
    .frame { stroke:#b6bfcc }
    .enclosure { stroke:#9aa4b2 }
    .station { fill:#26403d;stroke:#b6bfcc }
    .cell { fill:#14171a;stroke:#b6bfcc }
    .rail { stroke:#b6bfcc }
    .flow { stroke:#b6bfcc }
    .back { stroke:#b6bfcc }
    .relation { stroke:#9aa4b2 }
  }
</style>
<defs><marker id="a" viewBox="0 0 10 10" refX="9" refY="5" markerWidth="6" markerHeight="6" orient="auto-start-reverse"><path d="M0 0 L10 5 L0 10 z" fill="context-stroke"/></marker></defs>
<rect class="bg" fill="#ffffff" x="0" y="0" width="830.8" height="249"/>
<polygon class="station" fill="#d8e6e4" stroke="#4b5563" stroke-width="1.3" points="204,77 230,103 204,129 178,103"/>
<text x="204" y="69" text-anchor="middle" font-size="10" fill="#1d2021">choose j</text>
<circle class="station" fill="#d8e6e4" stroke="#4b5563" stroke-width="1.3" cx="362" cy="103" r="26"/>
<text x="362" y="106.5" text-anchor="middle" font-size="10" fill="#1d2021">FIFO</text>
<text x="362" y="69" text-anchor="middle" font-size="10" fill="#1d2021">link</text>
<circle class="station" fill="#d8e6e4" stroke="#4b5563" stroke-width="1.3" cx="520" cy="103" r="26"/>
<text x="520" y="106.5" text-anchor="middle" font-size="10" fill="#1d2021">FIFO</text>
<text x="520" y="69" text-anchor="middle" font-size="10" fill="#1d2021">rep[j]</text>
<text x="520" y="142" text-anchor="middle" font-size="8" fill="#6b7280" class="dim">choose j of 4</text>
<rect class="station" fill="#d8e6e4" stroke="#4b5563" stroke-width="1.3" x="636" y="77" width="84" height="52" rx="8"/>
<path class="rail" fill="none" stroke="#4b5563" stroke-width="1" d="M 652 85.32 L 654.17 88.42 L 656.33 91.11 L 658.5 93.43 L 660.67 95.43 L 662.83 97.16 L 665 98.66 L 667.17 99.96 L 669.33 101.08 L 671.5 102.04 L 673.67 102.88 L 675.83 103.6 L 678 104.22 L 680.17 104.76 L 682.33 105.23 L 684.5 105.63 L 686.67 105.98 L 688.83 106.28 L 691 106.54 L 693.17 106.77 L 695.33 106.96 L 697.5 107.13 L 699.67 107.28 L 701.83 107.4 L 704 107.51"/>
<text x="678" y="121" text-anchor="middle" font-size="10" fill="#1d2021">~exp(2)</text>
<text x="678" y="69" text-anchor="middle" font-size="10" fill="#1d2021">tool</text>
<text x="678" y="142" text-anchor="middle" font-size="8" fill="#6b7280" class="dim">delay</text>
<path class="flow" fill="none" stroke="#4b5563" stroke-width="1.3" d="M28 103 L162 103" marker-end="url(#a)"/>
<text x="28" y="93" text-anchor="start" font-size="8" fill="#6b7280" class="dim">new sessions: Poisson 0.9</text>
<path class="flow" fill="none" stroke="#4b5563" stroke-width="1.3" d="M246 103 L320 103" marker-end="url(#a)"/>
<text x="252" y="95" text-anchor="start" font-size="8" fill="#6b7280" class="dim">mv</text>
<path class="flow" fill="none" stroke="#4b5563" stroke-width="1.3" d="M404 103 L478 103" marker-end="url(#a)"/>
<path class="flow" fill="none" stroke="#4b5563" stroke-width="1.3" d="M214.5 129 L214.5 177 L520 177 L520 129" marker-end="url(#a)"/>
<path class="flow" fill="none" stroke="#4b5563" stroke-width="1.3" d="M562 103 L636 103" marker-end="url(#a)"/>
<text x="568" y="95" text-anchor="start" font-size="8" fill="#6b7280" class="dim">w.p. 0.9</text>
<path class="flow" fill="none" stroke="#4b5563" stroke-width="1.3" d="M541 129 L541 199 L746 199" marker-end="url(#a)"/>
<text x="750" y="202" text-anchor="start" font-size="8" fill="#6b7280" class="dim">ends (else)</text>
<path class="back" fill="none" stroke="#4b5563" stroke-width="1.1" stroke-dasharray="4 3" d="M657 129 L657 221 L183 221 L183 129" marker-end="url(#a)"/>
</svg>
